<?xml version="1.0" encoding="utf-8"?>
<!-- Generator: Adobe Illustrator 16.0.0, SVG Export Plug-In . SVG Version: 6.00 Build 0)  -->
<!DOCTYPE svg PUBLIC "-//W3C//DTD SVG 1.1//EN" "http://www.w3.org/Graphics/SVG/1.1/DTD/svg11.dtd">
<svg version="1.1" id="Layer_1" xmlns="http://www.w3.org/2000/svg" xmlns:xlink="http://www.w3.org/1999/xlink" x="0px" y="0px"
	 width="91px" height="91px" viewBox="0 0 283.46 283.46" enable-background="new 0 0 283.46 283.46" xml:space="preserve">
<g>
	<path d="M239.076,105.693l-53.716-0.001V91.257c0-6.251-2.2-11.613-6.594-16.085c-4.397-4.469-9.744-6.708-16.044-6.708h-60.495
		l0.001,37.234H56.402c0.651-9.432,2.83-18.59,6.515-27.294c4.306-10.184,10.475-19.335,18.329-27.19
		c0.084-0.084,0.171-0.165,0.255-0.249l0.01,0.01c7.803-7.744,16.865-13.83,26.944-18.093c10.543-4.456,21.741-6.717,33.284-6.719
		c11.542,0.002,22.741,2.263,33.282,6.719c10.079,4.263,19.142,10.349,26.944,18.093l0.011-0.01
		c0.084,0.083,0.171,0.165,0.254,0.249c7.855,7.854,14.024,17.006,18.33,27.19l11.048-4.671
		c-4.91-11.614-11.94-22.042-20.898-30.997c-8.959-8.955-19.383-15.984-30.998-20.899c-12.026-5.084-24.8-7.665-37.962-7.665
		c-0.004,0-0.008,0-0.011,0c-0.005,0-0.008,0-0.012,0c-13.162,0-25.936,2.581-37.963,7.665C92.15,26.751,81.726,33.78,72.768,42.735
		c-8.959,8.955-15.988,19.383-20.898,30.997c-4.312,10.192-6.82,20.917-7.486,31.965c-0.118,1.992-0.18,3.988-0.179,5.998
		c-0.001,2.008,0.061,4.007,0.179,5.997l57.846,0.002v37.225l60.494,0.002c6.249-0.002,11.585-2.236,16.006-6.71
		c4.421-4.469,6.632-9.856,6.632-16.159v-14.365h41.697c-0.651,9.432-2.83,18.59-6.516,27.294
		c-4.304,10.184-10.475,19.335-18.329,27.189c-0.084,0.084-0.17,0.166-0.255,0.249l-0.01-0.011
		c-7.804,7.744-16.865,13.83-26.944,18.093c-10.542,4.456-21.74,6.717-33.283,6.719c-11.542-0.002-22.741-2.263-33.283-6.719
		c-10.079-4.263-19.142-10.349-26.945-18.093l-0.01,0.011c-0.084-0.083-0.17-0.165-0.254-0.249
		c-7.854-7.854-14.024-17.006-18.33-27.189l-11.048,4.671c4.911,11.614,11.939,22.043,20.898,30.997
		c8.959,8.955,19.383,15.984,30.997,20.899c12.028,5.084,24.801,7.665,37.964,7.665c0.004,0,0.007,0,0.011,0s0.008,0,0.012,0
		c13.162,0,25.936-2.581,37.962-7.665c11.614-4.915,22.039-11.944,30.998-20.899c8.959-8.954,15.988-19.383,20.898-30.997
		c4.31-10.192,6.819-20.917,7.485-31.965c0.119-1.992,0.181-3.988,0.18-5.998C239.256,109.682,239.195,107.683,239.076,105.693z
		 M172.516,134.615c0.001,2.239-0.788,4.182-2.363,5.832c-1.576,1.653-3.506,2.478-5.792,2.478h-50.137V80.461h50.136
		c2.234,0,4.154,0.813,5.755,2.438c1.601,1.626,2.402,3.582,2.401,5.869V134.615z"/>
	<g>
		<g>
			<path d="M44.204,254.461h1.662c1.664,0,2.823,0.52,3.477,1.559c0.655,1.037,0.982,2.973,0.982,5.806
				c0,2.692-0.338,4.575-1.012,5.65c-0.675,1.076-1.837,1.612-3.486,1.612h-1.623V254.461z M45.546,255.673v12.184h0.262
				c1.182,0,2.002-0.403,2.458-1.212c0.459-0.809,0.688-2.355,0.688-4.64c0-2.558-0.221-4.253-0.662-5.085
				c-0.44-0.83-1.242-1.247-2.404-1.247H45.546z"/>
			<path d="M83.338,254.461h4.6v1.232h-3.257v5.271h3.217v1.191h-3.217v5.701h3.356v1.231h-4.699V254.461z"/>
			<path d="M120.63,266.834c0.353,0.394,0.725,0.69,1.112,0.892c0.387,0.201,0.791,0.301,1.212,0.301c0.681,0,1.24-0.247,1.678-0.74
				c0.438-0.494,0.656-1.134,0.656-1.915c0-0.334-0.045-0.641-0.136-0.921c-0.089-0.281-0.229-0.541-0.415-0.782
				c-0.287-0.367-0.795-0.818-1.523-1.352c-0.293-0.215-0.511-0.378-0.65-0.491c-0.741-0.603-1.275-1.194-1.604-1.779
				c-0.327-0.584-0.49-1.236-0.49-1.958c0-1.095,0.323-2.006,0.972-2.729c0.647-0.726,1.458-1.088,2.435-1.088
				c0.387,0,0.769,0.066,1.147,0.201c0.377,0.133,0.746,0.333,1.106,0.601v1.723c-0.293-0.414-0.628-0.729-1.003-0.945
				c-0.373-0.218-0.771-0.326-1.191-0.326c-0.635,0-1.148,0.225-1.543,0.676s-0.592,1.041-0.592,1.768
				c0,0.616,0.134,1.146,0.401,1.589c0.267,0.444,0.898,1.037,1.895,1.778c1.028,0.755,1.706,1.41,2.033,1.969
				c0.327,0.558,0.491,1.22,0.491,1.988c0,1.163-0.335,2.116-1.003,2.86c-0.668,0.745-1.516,1.117-2.545,1.117
				c-0.446,0-0.871-0.057-1.272-0.17c-0.4-0.113-0.79-0.287-1.171-0.521V266.834z"/>
			<path d="M159.493,269.088v-14.627h1.343v14.627H159.493z"/>
			<path d="M200.311,257.006l-1.231,0.511c-0.154-0.647-0.379-1.138-0.672-1.473c-0.294-0.333-0.651-0.501-1.072-0.501
				c-0.722,0-1.258,0.512-1.608,1.533c-0.35,1.021-0.526,2.584-0.526,4.689c0,2.237,0.166,3.843,0.498,4.818
				c0.33,0.975,0.869,1.463,1.617,1.463c0.573,0,0.998-0.256,1.272-0.767c0.273-0.512,0.41-1.312,0.41-2.4v-2.213h-2.033v-1.233
				h3.346v3.287c0,1.522-0.255,2.664-0.766,3.427c-0.511,0.761-1.274,1.142-2.29,1.142c-1.188,0-2.057-0.596-2.604-1.788
				c-0.549-1.192-0.822-3.098-0.822-5.716c0-2.559,0.293-4.45,0.877-5.677c0.584-1.225,1.487-1.838,2.71-1.838
				c0.683,0,1.271,0.236,1.77,0.706C199.681,255.447,200.057,256.124,200.311,257.006z"/>
			<path d="M233.153,254.461h1.152l3.306,10.009c0.047,0.141,0.141,0.483,0.281,1.027s0.313,1.228,0.521,2.048
				c-0.107-0.874-0.186-1.77-0.235-2.684c-0.05-0.915-0.075-1.861-0.075-2.836v-7.564h1.153v14.627h-1.153l-3.226-9.848
				c-0.147-0.468-0.294-0.964-0.442-1.488c-0.146-0.524-0.3-1.117-0.459-1.777c0.112,1.034,0.195,2.01,0.25,2.926
				c0.053,0.914,0.08,1.766,0.08,2.554v7.634h-1.152V254.461z"/>
		</g>
	</g>
</g>
</svg>
